<?xml version="1.0" encoding="utf-8"?>
<svg version="1.1" id="Liten" xmlns="http://www.w3.org/2000/svg" xmlns:xlink="http://www.w3.org/1999/xlink" x="0px" y="0px"
	 viewBox="0 0 31 31.6" style="enable-background:new 0 0 31 31.6;" xml:space="preserve">

<path style="fill:#FFFFFF;" d="M25.9,9.6c-0.1-0.1-0.4-0.3-1-0.6c-2.8-1.6-4.4-2.5-4.7-2.7C19.8,6.1,19.6,6,19.4,6c-0.3,0-0.6,0-0.9,0.2
	c-0.4,0.2-0.6,0.3-0.8,0.4c-0.4,0.2-0.6,0.6-0.6,1c0,0.1,0,0.3,0,0.7c0,4.3,0,5,0,8.1c0,0.3,0,0.4,0,0.4c-0.1,0.4-0.3,0.6-0.7,0.8
	c0,0-0.4,0.3-1.2,0.7h0h0c-0.8-0.5-1.2-0.7-1.2-0.7c-0.4-0.2-0.6-0.4-0.7-0.8c0,0,0-0.2,0-0.4c0-3.1,0-7.4,0-11.7c0-0.4,0-0.6,0-0.7
	c0-0.4-0.2-0.8-0.6-1c-0.1-0.1-0.4-0.2-0.8-0.4c-0.3-0.1-0.5-0.2-0.9-0.2c-0.2,0-0.4,0.1-0.8,0.3C10,2.9,8.4,3.8,5.6,5.4
	C5,5.7,4.6,5.9,4.6,6C4.2,6.3,3.9,6.9,3.9,7.4c0,5.8,0,10.9,0,14c0,0.4,0,0.6,0,0.8c0.1,0.5,0.4,0.9,0.7,1.2
	c0.1,0.1,0.3,0.2,0.5,0.3c2.5,1.4,5.5,3.1,8.9,5.1c0.3,0.2,0.5,0.3,0.8,0.4c0.2,0,0.3,0.1,0.4,0.1c0.2,0,0.3,0,0.4-0.1
	c0.3-0.1,0.5-0.2,0.8-0.4c3.4-1.9,6.4-3.6,8.9-5.1c0.3-0.1,0.4-0.3,0.5-0.3c0.4-0.3,0.6-0.7,0.7-1.2c0-0.1,0-0.4,0-0.8
	c0-3.1,0-4.6,0-10.4C26.7,10.5,26.3,9.9,25.9,9.6z M23,20.8c-0.1,0.3-0.3,0.4-0.5,0.6c-3.1,1.8-5.5,3.1-7.3,4.1
	c-1.7-1-4.2-2.4-7.3-4.1c-0.3-0.1-0.4-0.3-0.5-0.6c-0.1-0.1-0.1-0.3-0.1-0.7c0-1.6,0-5.8,0-11.3c0-0.2,0.1-0.4,0.2-0.5
	C7.6,8.2,7.8,8.1,8,7.9c0.4-0.3,1.1-0.6,2-1.1c0,0,0,0,0,0c0,1.7,0,5.6,0,10.5c0,0.4,0,0.7,0,1.1c0,0.2,0,0.4,0.1,0.5
	c0.1,0.3,0.3,0.5,0.6,0.7c1.1,0.6,2.3,1.3,3.7,2.1c0.3,0.1,0.4,0.2,0.6,0.3c0.1,0,0.1,0,0.2,0c0.1,0,0.1,0,0.2,0
	c0.2,0,0.3-0.1,0.6-0.3c1.4-0.8,2.6-1.5,3.7-2.1c0.3-0.2,0.5-0.4,0.6-0.7c0-0.1,0.1-0.3,0.1-0.5c0-0.4,0-0.7,0-1.1
	c0-4.9,0-5.1,0-6.9c0,0,0,0,0,0c0.9,0.5,1.5,0.9,2,1.1c0.3,0.1,0.4,0.3,0.5,0.3c0.1,0.2,0.2,0.3,0.2,0.5c0,5.5,0,6.1,0,7.6
	C23.1,20.4,23.1,20.6,23,20.8z"/>
</svg>
